<?xml version="1.0" encoding="UTF-8"?>
<svg width="5px" height="6px" viewBox="0 0 5 6" version="1.1" xmlns="http://www.w3.org/2000/svg" xmlns:xlink="http://www.w3.org/1999/xlink">
    <!-- Generator: Sketch 46.2 (44496) - http://www.bohemiancoding.com/sketch -->
    <title>Shape</title>
    <desc>Created with Sketch.</desc>
    <defs></defs>
    <g id="Page-1" stroke="none" stroke-width="1" fill="none" fill-rule="evenodd">
        <g id="Artboard" transform="translate(-29.000000, -22.000000)" fill-rule="nonzero" fill="#FFFFFF">
            <g id="snowflake" transform="translate(29.000000, 22.000000)">
                <path d="M5.00542406,4.20131984 L4.51494888,3.91801984 L4.81045455,3.74746167 C4.84867757,3.72513814 4.86184685,3.67663667 4.84000512,3.63761065 C4.81752099,3.59938763 4.76853772,3.58589715 4.7301541,3.60822068 L4.35466917,3.82551371 L3.98207505,3.61030849 L4.74155676,3.171868 C4.77994038,3.14954448 4.79310966,3.101043 4.77110733,3.06201698 C4.7487838,3.02379396 4.69963993,3.01030349 4.66125631,3.03262701 L3.82131354,3.51748116 L3.24009884,3.18182526 L3.93903401,2.87379271 L3.23977764,2.56559956 L3.82099234,2.22978306 L4.66109571,2.71495841 C4.67378318,2.72250665 4.68759486,2.72571867 4.70124594,2.72571867 C4.72919049,2.72571867 4.75617145,2.71110399 4.77110733,2.68556844 C4.79343086,2.64718482 4.78026158,2.59788034 4.74155676,2.57587802 L3.98175385,2.13711633 L4.35434797,1.92191111 L4.7304753,2.13920414 C4.74316277,2.14659178 4.75697445,2.1498038 4.77062553,2.1498038 C4.79840949,2.1498038 4.82539044,2.13534972 4.84048693,2.10965357 C4.86264985,2.07143056 4.84948058,2.02212608 4.81093636,2.00012375 L4.51527008,1.82924438 L5.00542406,1.54626558 C5.04380768,1.52394205 5.05681635,1.47511937 5.03497463,1.43641455 C5.0124905,1.39819154 4.96334662,1.38470106 4.92512361,1.40686398 L4.43513022,1.69000339 L4.43496962,1.34920826 C4.43496962,1.30504301 4.39883442,1.2689078 4.35466917,1.2689078 C4.31034332,1.2689078 4.27436871,1.30504301 4.27436871,1.34920826 L4.27452931,1.78267012 L3.9019352,1.99787534 L3.9020958,1.12099436 C3.9020958,1.07666851 3.8661212,1.04069391 3.82179534,1.04069391 C3.77763009,1.04069391 3.74149489,1.07666851 3.74149489,1.12099436 L3.74133429,2.09054207 L3.16011959,2.42619797 L3.24282906,1.66687686 L2.62644276,2.11816542 L2.62644276,1.44669301 L3.46622493,0.961517657 C3.50444794,0.939354731 3.51761722,0.890371453 3.49577549,0.851666634 C3.47329137,0.813443617 3.42430809,0.800113741 3.38592447,0.822437268 L2.62644276,1.26087776 L2.62644276,0.830788515 L3.00208829,0.613656083 C3.04047191,0.591493157 3.05364118,0.542509879 3.03163886,0.503805059 C3.00915473,0.465582042 2.96017145,0.452091566 2.92178784,0.474575693 L2.62644276,0.645615664 L2.62644276,0.0803004558 C2.62644276,0.0359746042 2.59046816,0 2.5461423,0 C2.50181645,0 2.46584185,0.0359746042 2.46584185,0.0803004558 L2.46584185,0.646097467 L2.17049677,0.475539299 C2.13195255,0.45289457 2.08296927,0.466385047 2.06080635,0.505089867 C2.03864342,0.543473485 2.0518127,0.592617363 2.09019632,0.61494089 L2.46584185,0.832073322 L2.46584185,1.26216256 L1.70636014,0.823722075 C1.66781592,0.801237947 1.61883264,0.814567823 1.59666971,0.853272643 C1.57450679,0.891656261 1.58767606,0.94080014 1.62605968,0.963123666 L2.46584185,1.44813842 L2.46584185,2.12009263 L1.84961615,1.66864347 L1.93216502,2.42812518 L1.35062912,2.09214807 L1.35062912,1.12243977 C1.35062912,1.07811392 1.31465451,1.04213931 1.27032866,1.04213931 C1.22600281,1.04213931 1.19002821,1.07811392 1.19002821,1.12243977 L1.19002821,1.99964195 L0.817755294,1.78443673 L0.817594693,1.35065367 C0.817594693,1.30616721 0.781620089,1.27035321 0.737294237,1.27035321 C0.692968386,1.27035321 0.656993782,1.30616721 0.656993782,1.35065367 L0.657154383,1.6919306 L0.1668398,1.40863059 C0.128456182,1.38598587 0.0793123029,1.39947634 0.0571493772,1.43818116 C0.0349864514,1.47656478 0.0481557261,1.52570866 0.086539344,1.54787159 L0.576693326,1.83085039 L0.28134825,2.00140856 C0.242964632,2.02373209 0.229795357,2.07255476 0.251958283,2.11125958 C0.266894168,2.13695573 0.293875121,2.15140981 0.321659078,2.15140981 C0.335310156,2.15140981 0.349121834,2.14803719 0.361809306,2.14081015 L0.737454838,1.92383832 L1.10988835,2.13888294 L0.350406642,2.57732343 C0.312023024,2.59964695 0.298853749,2.64846963 0.321016675,2.68717445 C0.33595256,2.7128706 0.362933513,2.72732468 0.39071747,2.72732468 C0.404368548,2.72732468 0.418180226,2.72395206 0.430867698,2.71672502 L1.27081047,2.23154967 L1.85250697,2.56736617 L1.1535718,2.87555932 L1.85234637,3.18375247 L1.27081047,3.51940837 L0.430707097,3.03471482 C0.392002278,3.0125519 0.343179601,3.02539997 0.321016675,3.06426539 C0.298853749,3.10280961 0.312023024,3.15179289 0.350406642,3.17443762 L1.11020955,3.6127175 L0.737454838,3.82792273 L0.361969907,3.61079029 C0.323586289,3.58798496 0.27444241,3.60147544 0.252279485,3.64034086 C0.230116559,3.67856388 0.243285834,3.72786836 0.281669451,3.75019188 L0.576853927,3.92075005 L0.0870211467,4.20340766 C0.0486375289,4.22573118 0.0354682541,4.27455386 0.0576311799,4.31325868 C0.0725670647,4.33895483 0.0995480178,4.35340891 0.127331975,4.35340891 C0.140983053,4.35340891 0.154794731,4.35003629 0.167482203,4.34296985 L0.657475584,4.05983044 L0.657636185,4.40046498 C0.657636185,4.44479083 0.693610789,4.48076543 0.737936641,4.48076543 L0.737936641,4.48076543 C0.782262493,4.48076543 0.818237097,4.44463023 0.818237097,4.40046498 L0.818076496,3.96668191 L1.19099181,3.75147669 L1.19067061,4.62883947 C1.19067061,4.67332592 1.22664521,4.70913993 1.27097107,4.70913993 C1.31529692,4.70913993 1.35127152,4.67332592 1.35127152,4.62883947 L1.35159272,3.65864936 L1.93280742,3.32299346 L1.85025855,4.08247517 L2.46648425,3.63118661 L2.46648425,4.30298022 L1.62686269,4.78815558 C1.58847907,4.8104791 1.57530979,4.85914118 1.59747272,4.8980066 C1.61963565,4.93590841 1.66877952,4.94907769 1.70716314,4.92755717 L2.46648425,4.48911668 L2.46648425,4.91936652 L2.09083872,5.13665955 C2.0524551,5.15898308 2.03928583,5.20764516 2.06144875,5.24651058 C2.08361168,5.28441239 2.13275556,5.29790287 2.17113918,5.27606114 L2.46648425,5.10550298 L2.46648425,5.66921218 C2.46648425,5.71321683 2.50245886,5.74951263 2.54678471,5.74951263 C2.59111056,5.74951263 2.62708516,5.71321683 2.62708516,5.66921218 L2.62708516,5.10325456 L2.92275144,5.27381273 C2.93543891,5.28120037 2.94925059,5.28441239 2.96290167,5.28441239 C2.99084623,5.28441239 3.01782718,5.26995831 3.03276307,5.24426216 C3.05508659,5.20587855 3.04191732,5.15673467 3.0032125,5.13441114 L2.62724576,4.91695751 L2.62724576,4.48686827 L3.38672747,4.92530875 C3.39941495,4.9326964 3.41322662,4.93590841 3.4268777,4.93590841 C3.45482226,4.93590841 3.48180321,4.92145433 3.4967391,4.89575819 C3.51906263,4.85737457 3.50589335,4.80823069 3.46718853,4.78590716 L2.62740636,4.30073181 L2.62740636,3.6295806 L3.24379266,4.08102976 L3.16124379,3.32154805 L3.74261909,3.65720396 L3.74261909,4.62707286 C3.74261909,4.67139871 3.7785937,4.70737332 3.82291955,4.70737332 C3.8670848,4.70737332 3.90322001,4.67139871 3.90322001,4.62707286 L3.90322001,3.75003128 L4.27549292,3.9652365 L4.27565352,4.39869837 C4.27565352,4.44286362 4.31178872,4.47899882 4.35595398,4.47899882 C4.40011923,4.47899882 4.43625443,4.44286362 4.43625443,4.39869837 L4.43609383,4.05774263 L4.92640841,4.34104264 C4.93909588,4.34826968 4.95290756,4.3516423 4.96655864,4.3516423 C4.9945032,4.3516423 5.02148415,4.33718822 5.03642004,4.31149207 C5.05745876,4.27262665 5.04428948,4.22316157 5.00542406,4.20131984 Z M3.04368393,3.7354166 L2.62612156,3.43011427 L2.5459817,3.37181614 L2.46552065,3.43043547 L2.04827948,3.7355772 L2.1041686,3.22149368 L2.11492886,3.12272412 L2.02386814,3.0825739 L1.55089846,2.87395331 L2.02402874,2.66533273 L2.11492886,2.6251825 L2.1041686,2.52625234 L2.04827948,2.01232942 L2.46552065,2.31763175 L2.5458211,2.37609049 L2.62612156,2.31747115 L3.04368393,2.01216882 L2.98763421,2.52625234 L2.97703455,2.6251825 L3.06761346,2.66517213 L3.54074375,2.87395331 L3.06793467,3.0825739 L2.97703455,3.12272412 L2.98763421,3.22149368 L3.04368393,3.7354166 Z" id="Shape"></path>
            </g>
        </g>
    </g>
</svg>