<?xml version="1.0" encoding="UTF-8"?>
<svg width="11px" height="12px" viewBox="0 0 11 12" version="1.1" xmlns="http://www.w3.org/2000/svg" xmlns:xlink="http://www.w3.org/1999/xlink">
    <!-- Generator: Sketch 46.2 (44496) - http://www.bohemiancoding.com/sketch -->
    <title>snowflake</title>
    <desc>Created with Sketch.</desc>
    <defs></defs>
    <g id="Page-1" stroke="none" stroke-width="1" fill="none" fill-rule="evenodd">
        <g id="Artboard" transform="translate(-29.000000, -22.000000)" fill-rule="nonzero" fill="#FFFFFF">
            <g id="snowflake" transform="translate(29.000000, 22.000000)">
                <path d="M10.0108481,8.40263969 L9.02989776,7.83603967 L9.62090911,7.49492334 C9.69735514,7.45027628 9.72369369,7.35327333 9.68001025,7.27522129 C9.63504199,7.19877526 9.53707543,7.1717943 9.4603082,7.21644136 L8.70933834,7.65102742 L7.96415011,7.22061698 L9.48311353,6.343736 C9.55988076,6.29908895 9.58621931,6.202086 9.54221466,6.12403396 C9.49756761,6.04758792 9.39927985,6.02060697 9.32251262,6.06525402 L7.64262708,7.03496233 L6.48019768,6.36365052 L7.87806802,5.74758542 L6.47955528,5.13119912 L7.64198468,4.45956611 L9.32219141,5.42991682 C9.34756636,5.4450133 9.37518972,5.45143734 9.40249187,5.45143734 C9.45838099,5.45143734 9.51234289,5.42220797 9.54221466,5.37113688 C9.58686172,5.29436965 9.56052317,5.19576069 9.48311353,5.15175604 L7.9635077,4.27423266 L8.70869593,3.84382222 L9.4609506,4.27840828 C9.48632555,4.29318357 9.5139489,4.2996076 9.54125106,4.2996076 C9.59681897,4.2996076 9.65078088,4.27069944 9.68097385,4.21930715 C9.7252997,4.14286111 9.69896115,4.04425215 9.62187272,4.0002475 L9.03054016,3.65848876 L10.0108481,3.09253115 C10.0876154,3.0478841 10.1136327,2.95023874 10.0699493,2.8728291 C10.024981,2.79638307 9.92669325,2.76940212 9.85024721,2.81372797 L8.87026045,3.38000678 L8.86993925,2.69841652 C8.86993925,2.61008601 8.79766884,2.5378156 8.70933834,2.5378156 C8.62068663,2.5378156 8.54873742,2.61008601 8.54873742,2.69841652 L8.54905863,3.56534024 L7.8038704,3.99575068 L7.8041916,2.24198872 C7.8041916,2.15333702 7.73224239,2.08138781 7.64359069,2.08138781 C7.55526019,2.08138781 7.48298978,2.15333702 7.48298978,2.24198872 L7.48266857,4.18108413 L6.32023918,4.85239594 L6.48565812,3.33375372 L5.25288552,4.23633084 L5.25288552,2.89338602 L6.93244985,1.92303531 C7.00889589,1.87870946 7.03523443,1.78074291 6.99155099,1.70333327 C6.94658273,1.62688723 6.84861618,1.60022748 6.77184894,1.64487454 L5.25288552,2.52175551 L5.25288552,1.66157703 L6.00417658,1.22731217 C6.08094382,1.18298631 6.10728237,1.08501976 6.06327772,1.00761012 C6.01830946,0.931164085 5.92034291,0.904183132 5.84357567,0.949151387 L5.25288552,1.29123133 L5.25288552,0.160600912 C5.25288552,0.0719492084 5.18093631,0 5.09228461,0 C5.0036329,0 4.9316837,0.0719492084 4.9316837,0.160600912 L4.9316837,1.29219493 L4.34099354,0.951078598 C4.26390511,0.905789141 4.16593855,0.932770094 4.1216127,1.01017973 C4.07728685,1.08694697 4.1036254,1.18523473 4.18039263,1.22988178 L4.9316837,1.66414664 L4.9316837,2.52432513 L3.41272027,1.64744415 C3.33563184,1.60247589 3.23766528,1.62913565 3.19333943,1.70654529 C3.14901358,1.78331252 3.17535213,1.88160028 3.25211936,1.92624733 L4.9316837,2.89627684 L4.9316837,4.24018527 L3.6992323,3.33728694 L3.86433004,4.85625036 L2.70125824,4.18429615 L2.70125824,2.24487954 C2.70125824,2.15622784 2.62930903,2.08427863 2.54065733,2.08427863 C2.45200562,2.08427863 2.38005641,2.15622784 2.38005641,2.24487954 L2.38005641,3.9992839 L1.63551059,3.56887346 L1.63518939,2.70130733 C1.63518939,2.61233443 1.56324018,2.54070642 1.47458847,2.54070642 C1.38593677,2.54070642 1.31398756,2.61233443 1.31398756,2.70130733 L1.31430877,3.38386121 L0.333679599,2.81726119 C0.256912364,2.77197173 0.158624606,2.79895269 0.114298754,2.87636232 C0.0699729028,2.95312956 0.0963114522,3.05141732 0.173078688,3.09574317 L1.15338665,3.66170078 L0.562696499,4.00281712 C0.485929264,4.04746417 0.459590714,4.14510953 0.503916566,4.22251917 C0.533788335,4.27391146 0.587750241,4.30281962 0.643318157,4.30281962 C0.670620312,4.30281962 0.698243669,4.29607438 0.723618613,4.2816203 L1.47490968,3.84767664 L2.2197767,4.27776588 L0.700813283,5.15464686 C0.624046047,5.19929391 0.597707498,5.29693926 0.64203335,5.3743489 C0.671905119,5.42574119 0.725867025,5.45464936 0.781434941,5.45464936 C0.808737096,5.45464936 0.836360452,5.44790412 0.861735396,5.43345004 L2.54162093,4.46309933 L3.70501393,5.13473234 L2.3071436,5.75111864 L3.70469273,6.36750494 L2.54162093,7.03881675 L0.861414195,6.06942965 C0.784004555,6.0251038 0.686359201,6.05079994 0.64203335,6.12853078 C0.597707498,6.20561922 0.624046047,6.30358578 0.700813283,6.34887523 L2.22041911,7.22543501 L1.47490968,7.65584545 L0.723939814,7.22158059 C0.647172579,7.17596993 0.548884821,7.20295088 0.504558969,7.28068172 C0.460233118,7.35712776 0.486571667,7.45573672 0.563338903,7.50038377 L1.15370785,7.8415001 L0.174042293,8.40681531 C0.0972750577,8.45146237 0.0709365082,8.54910772 0.11526236,8.62651736 C0.145134129,8.67790965 0.199096036,8.70681782 0.254663951,8.70681782 C0.281966106,8.70681782 0.309589463,8.70007258 0.334964407,8.6859397 L1.31495117,8.11966088 L1.31527237,8.80092995 C1.31527237,8.88958165 1.38722158,8.96153086 1.47587328,8.96153086 L1.47587328,8.96153086 C1.56452499,8.96153086 1.63647419,8.88926045 1.63647419,8.80092995 L1.63615299,7.93336383 L2.38198362,7.50295338 L2.38134122,9.25767894 C2.38134122,9.34665185 2.45329043,9.41827985 2.54194213,9.41827985 C2.63059384,9.41827985 2.70254304,9.34665185 2.70254304,9.25767894 L2.70318545,7.31729873 L3.86561485,6.64598692 L3.70051711,8.16495034 L4.9329685,7.26237322 L4.9329685,8.60596044 L3.25372537,9.57631115 C3.17695814,9.6209582 3.15061959,9.71828236 3.19494544,9.7960132 C3.23927129,9.87181683 3.33755905,9.89815538 3.41432628,9.85511433 L4.9329685,8.97823336 L4.9329685,9.83873304 L4.18167744,10.2733191 C4.1049102,10.3179662 4.07857165,10.4152903 4.12289751,10.4930212 C4.16722336,10.5688248 4.26551111,10.5958057 4.34227835,10.5521223 L4.9329685,10.211006 L4.9329685,11.3384244 C4.9329685,11.4264337 5.00491771,11.4990253 5.09356941,11.4990253 C5.18222112,11.4990253 5.25417033,11.4264337 5.25417033,11.3384244 L5.25417033,10.2065091 L5.84550288,10.5476255 C5.87087783,10.5624007 5.89850118,10.5688248 5.92580334,10.5688248 C5.98169246,10.5688248 6.03565436,10.5399166 6.06552613,10.4885243 C6.11017318,10.4117571 6.08383463,10.3134693 6.006425,10.2688223 L5.25449153,9.83391501 L5.25449153,8.97373653 L6.77345495,9.85061751 C6.79882989,9.86539279 6.82645325,9.87181683 6.8537554,9.87181683 C6.90964452,9.87181683 6.96360643,9.84290866 6.9934782,9.79151637 C7.03812525,9.71474914 7.0117867,9.61646138 6.93437706,9.57181433 L5.25481273,8.60146362 L5.25481273,7.2591612 L6.48758533,8.16205952 L6.32248759,6.6430961 L7.48523819,7.31440791 L7.48523819,9.25414572 C7.48523819,9.34279743 7.5571874,9.41474663 7.6458391,9.41474663 C7.7341696,9.41474663 7.80644001,9.34279743 7.80644001,9.25414572 L7.80644001,7.50006257 L8.55098584,7.93047301 L8.55130704,8.79739673 C8.55130704,8.88572723 8.62357745,8.95799764 8.71190795,8.95799764 C8.80023845,8.95799764 8.87250886,8.88572723 8.87250886,8.79739673 L8.87218766,8.11548526 L9.85281683,8.68208528 C9.87819177,8.69653936 9.90581513,8.7032846 9.93311728,8.7032846 C9.9890064,8.7032846 10.0429683,8.67437643 10.0728401,8.62298414 C10.1149175,8.5452533 10.088579,8.44632314 10.0108481,8.40263969 Z M6.08736785,7.4708332 L5.25224312,6.86022854 L5.09196341,6.74363227 L4.93104129,6.86087094 L4.09655896,7.4711544 L4.20833719,6.44298737 L4.22985771,6.24544825 L4.04773628,6.16514779 L3.10179691,5.74790662 L4.04805748,5.33066545 L4.22985771,5.250365 L4.20833719,5.05250468 L4.09655896,4.02465884 L4.93104129,4.63526351 L5.0916422,4.75218097 L5.25224312,4.63494231 L6.08736785,4.02433764 L5.97526842,5.05250468 L5.9540691,5.250365 L6.13522693,5.33034425 L7.0814875,5.74790662 L6.13586933,6.16514779 L5.9540691,6.24544825 L5.97526842,6.44298737 L6.08736785,7.4708332 Z" id="Shape"></path>
            </g>
        </g>
    </g>
</svg>